<svg width="130" height="77" viewBox="0 0 130 77" fill="none" xmlns="http://www.w3.org/2000/svg">
<path d="M59.9506 57.4527C27.4976 70.0062 9.25305 69.381 5.96093 60.8703C2.6688 52.3595 26.3083 35.2836 58.7613 22.7301C91.2143 10.1766 120.191 6.8993 123.484 15.41C126.18 22.38 115.069 32.8597 91.5912 44.1303" stroke="#D8BFA9" stroke-width="0.5" stroke-dasharray="7 7"/>
<path d="M118.653 3.3306C118.653 3.3306 118.973 7.02543 120.504 8.55642C122.035 10.0874 125.73 10.4081 125.73 10.4081C125.73 10.4081 122.035 10.7288 120.504 12.2598C118.973 13.7908 118.653 17.4856 118.653 17.4856C118.653 17.4856 118.332 13.7908 116.801 12.2598C115.27 10.7288 111.575 10.4081 111.575 10.4081C111.575 10.4081 115.27 10.0874 116.801 8.55642C118.332 7.02543 118.653 3.3306 118.653 3.3306Z" fill="#D8BFA9"/>
<path d="M122.399 17.4856C122.399 17.4856 122.512 18.7897 123.053 19.33C123.593 19.8703 124.897 19.9835 124.897 19.9835C124.897 19.9835 123.593 20.0967 123.053 20.6371C122.512 21.1774 122.399 22.4815 122.399 22.4815C122.399 22.4815 122.286 21.1774 121.746 20.6371C121.205 20.0967 119.901 19.9835 119.901 19.9835C119.901 19.9835 121.205 19.8703 121.746 19.33C122.286 18.7897 122.399 17.4856 122.399 17.4856Z" fill="#D8BFA9"/>
</svg>
