<svg width="254" height="160" viewBox="0 0 254 160" fill="none" xmlns="http://www.w3.org/2000/svg">
<path d="M141.247 116.538C79.272 140.511 22.6991 143.574 14.8874 123.38C7.07576 103.185 50.9835 67.3802 112.958 43.4071C174.933 19.434 231.506 16.3709 239.317 36.5653C245.715 53.1039 217.424 80.1124 172.929 102.517" stroke="#D8BFA9" stroke-width="0.5" stroke-dasharray="9 9"/>
<path d="M238.5 40C238.5 40 238.749 42.8713 239.939 44.061C241.129 45.2508 244 45.5 244 45.5C244 45.5 241.129 45.7492 239.939 46.939C238.749 48.1287 238.5 51 238.5 51C238.5 51 238.251 48.1287 237.061 46.939C235.871 45.7492 233 45.5 233 45.5C233 45.5 235.871 45.2508 237.061 44.061C238.251 42.8713 238.5 40 238.5 40Z" fill="#D8BFA9"/>
<path d="M229.5 10C229.5 10 230.157 17.8308 233.294 21.0756C236.43 24.3203 244 25 244 25C244 25 236.43 25.6797 233.294 28.9244C230.157 32.1692 229.5 40 229.5 40C229.5 40 228.843 32.1692 225.706 28.9244C222.57 25.6797 215 25 215 25C215 25 222.57 24.3203 225.706 21.0756C228.843 17.8308 229.5 10 229.5 10Z" fill="#D8BFA9"/>
</svg>
